<svg class="svg-symbols" style="position: absolute; clip: rect(0, 0, 0, 0);" xmlns="http://www.w3.org/2000/svg" xmlns:xlink="http://www.w3.org/1999/xlink">
<defs>
<path id="speech_bubble.svg-a" d="M1597 60v11a1 1 0 0 1-1 1h-8.64l-4.36 3.11V72h-3a1 1 0 0 1-1-1V60a1 1 0 0 1 1-1h16a1 1 0 0 1 1 1zm-17-3a3 3 0 0 0-3 3v11a3 3 0 0 0 3 3h1v5l7-5h8a3 3 0 0 0 3-3V60a3 3 0 0 0-3-3z"/>
<path id="logo-h.svg-b" d="M655.53 55.12c.8.45 1.46 1.58 1.46 2.52v17.04c0 .94-.65 2.07-1.46 2.52l-2.08 1.17c-.8.45-1.46.05-1.46-.88V60.52c0-.93-.65-2.06-1.46-2.51l-2.07-1.17a476.49 476.49 0 0 1-2.92-1.64l-7.08-3.97c-.8-.45-.8-1.27 0-1.72l2.08-1.17c.8-.45 2.11-.45 2.92 0l2.08 1.17a483.1 483.1 0 0 1 2.92 1.64zM622 60.35c0-.94.66-1.33 1.46-.88l12.08 6.77c.8.45 1.46 1.58 1.46 2.52v16.98c0 .93-.66 1.33-1.46.88l-7.08-3.97c-.8-.45-1.46-.05-1.46.88v3.4c0 .93-.66 1.32-1.46.87l-2.08-1.16a3.19 3.19 0 0 1-1.46-2.52zm10 12.4c0-.93-.66-2.07-1.46-2.52l-2.08-1.16c-.8-.45-1.46-.06-1.46.88v3.39c0 .93.66 2.06 1.46 2.51l2.08 1.17c.8.45 1.46.05 1.46-.88zm6.5-16.06l7.08 3.97c.8.45 1.46 1.58 1.46 2.52v17.01c0 .94-.66 2.07-1.46 2.52l-2.08 1.17c-.8.45-1.46.05-1.46-.88V66.07c0-.94-.66-2.07-1.46-2.52l-2.08-1.17a538.58 538.58 0 0 1-2.92-1.64l-7.08-3.97c-.8-.45-.8-1.27 0-1.72l2.08-1.16c.8-.46 2.12-.46 2.92 0l2.08 1.16a558.12 558.12 0 0 1 2.92 1.64z"/><linearGradient id="logo-h.svg-a" x1="628" x2="650.99" y1="48" y2="87.99" gradientUnits="userSpaceOnUse"><stop offset="0" stop-color="#4fbe9b"/><stop offset=".15" stop-color="#4fbe9b"/><stop offset=".85" stop-color="#108db3"/><stop offset="1" stop-color="#108db3"/></linearGradient>
<path id="more.svg-b" d="M703 3845a6 6 0 0 1 8.8-5.3l1.46-1.46A8 8 0 0 0 701 3845h-3l4 4 4-4h-3zm13-4l-4 4h3a6 6 0 0 1-8.8 5.3l-1.46 1.46A8 8 0 0 0 717 3845h3l-4-4z"/><linearGradient id="more.svg-a" x1="702.06" x2="713.42" y1="3838.72" y2="3848.32" gradientUnits="userSpaceOnUse"><stop offset="0" stop-color="#fa6e71"/><stop offset="1" stop-color="#c84080"/></linearGradient>
</defs>
<symbol id="icon-svg-speech_bubble" viewBox="0 0 22 22"><use xlink:href="#speech_bubble.svg-a" transform="translate(-1577 -57)"/></symbol>
<symbol id="icon-svg-logo-h" viewBox="0 0 35 40"><use fill="url(#logo-h.svg-a)" xlink:href="#logo-h.svg-b" transform="translate(-622 -48)"/></symbol>
<symbol id="icon-svg-more" viewBox="0 0 22 16"><use fill="url(#more.svg-a)" xlink:href="#more.svg-b" transform="translate(-698 -3837)"/></symbol>
</svg>