<svg class="svg-symbols" style="position: absolute; clip: rect(0, 0, 0, 0);" xmlns="http://www.w3.org/2000/svg" xmlns:xlink="http://www.w3.org/1999/xlink">
<defs>
<path id="close-search.svg-a" d="M1457.83 1121.99a.6.6 0 0 1-.42 1.01.59.59 0 0 1-.42-.17l-4-4-3.99 4a.59.59 0 0 1-.83 0 .6.6 0 0 1 0-.84l3.99-4-4-3.98a.6.6 0 0 1 0-.84.58.58 0 0 1 .84 0l4 3.99 4-4c.23-.23.6-.23.83 0a.6.6 0 0 1 0 .85l-4 3.99z"/>
<path id="close.svg-a" d="M943.83 169.99a.6.6 0 0 1-.42 1.01.59.59 0 0 1-.42-.17l-4-4-3.99 4a.59.59 0 0 1-.83 0 .6.6 0 0 1 0-.84l3.99-4-4-3.98a.6.6 0 0 1 0-.84.58.58 0 0 1 .84 0l4 3.99 4-4c.23-.23.6-.23.83 0a.6.6 0 0 1 0 .85l-4 3.99z"/>
<path id="head.svg-a" d="M1417 192.03V194a3 3 0 0 1-3 3h-18a3 3 0 0 1-3-3v-1.98c0-2.15 3.26-4 7.83-4.7A5.98 5.98 0 0 1 1399 183v-3a6 6 0 0 1 12 0v3c0 1.7-.7 3.22-1.83 4.31 4.57.72 7.83 2.57 7.83 4.72zm-12-5.03a4 4 0 0 0 4-4v-3a4 4 0 0 0-8 0v3a4 4 0 0 0 4 4zm10 5.03c0-.23-.58-.99-2.29-1.7-2-.85-4.81-1.33-7.71-1.33-2.9 0-5.71.48-7.71 1.32-1.71.72-2.29 1.47-2.29 1.7V194a1 1 0 0 0 1 1h18a1 1 0 0 0 1-1z"/>
<path id="i-yes-white.svg-a" d="M1100 647a1 1 0 0 1-.71-.3l-6-6a1 1 0 1 1 1.4-1.41l5.3 5.29 11.3-11.3a1 1 0 1 1 1.4 1.42l-12 12a1 1 0 0 1-.7.3z"/>
<path id="i-yes.svg-b" d="M1100 647a1 1 0 0 1-.71-.3l-6-6a1 1 0 1 1 1.4-1.41l5.3 5.29 11.3-11.3a1 1 0 1 1 1.4 1.42l-12 12a1 1 0 0 1-.7.3z"/><linearGradient id="i-yes.svg-a" x1="1092.99" x2="1112.99" y1="639.99" y2="639.99" gradientUnits="userSpaceOnUse"><stop offset="0" stop-color="#4fbe9b"/><stop offset=".15" stop-color="#4fbe9b"/><stop offset=".85" stop-color="#108db3"/><stop offset="1" stop-color="#108db3"/></linearGradient>
<path id="logo-h.svg-b" d="M175.53 55.12c.8.45 1.46 1.58 1.46 2.52v17.04c0 .94-.65 2.07-1.46 2.52l-2.08 1.17c-.8.45-1.46.05-1.46-.88V60.52c0-.93-.65-2.06-1.46-2.51l-2.07-1.17a468.18 468.18 0 0 1-2.92-1.64l-7.08-3.97c-.8-.45-.8-1.27 0-1.72l2.08-1.17c.8-.45 2.11-.45 2.92 0l2.08 1.17a491.92 491.92 0 0 1 2.92 1.64zM142 60.35c0-.94.66-1.33 1.46-.88l12.08 6.77c.8.45 1.46 1.58 1.46 2.52v16.98c0 .93-.66 1.33-1.46.88l-7.08-3.97c-.8-.45-1.46-.05-1.46.88v3.4c0 .93-.66 1.32-1.46.87l-2.08-1.16a3.19 3.19 0 0 1-1.46-2.52zm10 12.4c0-.93-.66-2.07-1.46-2.52l-2.08-1.16c-.8-.45-1.46-.06-1.46.88v3.39c0 .93.66 2.06 1.46 2.51l2.08 1.17c.8.45 1.46.05 1.46-.88zm6.5-16.06l7.08 3.97c.8.45 1.46 1.58 1.46 2.52v17.01c0 .94-.66 2.07-1.46 2.52l-2.08 1.17c-.8.45-1.46.05-1.46-.88V66.07c0-.94-.66-2.07-1.46-2.52l-2.08-1.17a531.96 531.96 0 0 1-2.92-1.64l-7.08-3.97c-.8-.45-.8-1.27 0-1.72l2.08-1.16c.8-.46 2.12-.46 2.92 0l2.08 1.16a569.91 569.91 0 0 1 2.92 1.64z"/><linearGradient id="logo-h.svg-a" x1="148" x2="170.99" y1="48" y2="87.99" gradientUnits="userSpaceOnUse"><stop offset="0" stop-color="#4fbe9b"/><stop offset=".15" stop-color="#4fbe9b"/><stop offset=".85" stop-color="#108db3"/><stop offset="1" stop-color="#108db3"/></linearGradient>
<path id="search-input.svg-b" d="M1053.7 1128.7a1 1 0 0 1-1.4 0l-5.68-5.67a9 9 0 1 1 1.41-1.41l5.68 5.67a1 1 0 0 1 0 1.42zm-5.7-12.7a7 7 0 1 0-14 0 7 7 0 0 0 14 0z"/><linearGradient id="search-input.svg-a" x1="1032" x2="1054" y1="1118" y2="1118" gradientUnits="userSpaceOnUse"><stop offset="0" stop-color="#4fbe9b"/><stop offset=".15" stop-color="#4fbe9b"/><stop offset=".85" stop-color="#108db3"/><stop offset="1" stop-color="#108db3"/></linearGradient>
<path id="search.svg-a" d="M1457.7 78.7a1 1 0 0 1-1.4 0l-5.68-5.67a9 9 0 1 1 1.41-1.41l5.68 5.67a1 1 0 0 1 0 1.42zM1452 66a7 7 0 1 0-14 0 7 7 0 0 0 14 0z"/>
<path id="speech_bubble.svg-a" d="M1597 60v11a1 1 0 0 1-1 1h-8.64l-4.36 3.11V72h-3a1 1 0 0 1-1-1V60a1 1 0 0 1 1-1h16a1 1 0 0 1 1 1zm-17-3a3 3 0 0 0-3 3v11a3 3 0 0 0 3 3h1v5l7-5h8a3 3 0 0 0 3-3V60a3 3 0 0 0-3-3z"/>
<path id="logo-h.svg-b" d="M655.53 55.12c.8.45 1.46 1.58 1.46 2.52v17.04c0 .94-.65 2.07-1.46 2.52l-2.08 1.17c-.8.45-1.46.05-1.46-.88V60.52c0-.93-.65-2.06-1.46-2.51l-2.07-1.17a476.49 476.49 0 0 1-2.92-1.64l-7.08-3.97c-.8-.45-.8-1.27 0-1.72l2.08-1.17c.8-.45 2.11-.45 2.92 0l2.08 1.17a483.1 483.1 0 0 1 2.92 1.64zM622 60.35c0-.94.66-1.33 1.46-.88l12.08 6.77c.8.45 1.46 1.58 1.46 2.52v16.98c0 .93-.66 1.33-1.46.88l-7.08-3.97c-.8-.45-1.46-.05-1.46.88v3.4c0 .93-.66 1.32-1.46.87l-2.08-1.16a3.19 3.19 0 0 1-1.46-2.52zm10 12.4c0-.93-.66-2.07-1.46-2.52l-2.08-1.16c-.8-.45-1.46-.06-1.46.88v3.39c0 .93.66 2.06 1.46 2.51l2.08 1.17c.8.45 1.46.05 1.46-.88zm6.5-16.06l7.08 3.97c.8.45 1.46 1.58 1.46 2.52v17.01c0 .94-.66 2.07-1.46 2.52l-2.08 1.17c-.8.45-1.46.05-1.46-.88V66.07c0-.94-.66-2.07-1.46-2.52l-2.08-1.17a538.58 538.58 0 0 1-2.92-1.64l-7.08-3.97c-.8-.45-.8-1.27 0-1.72l2.08-1.16c.8-.46 2.12-.46 2.92 0l2.08 1.16a558.12 558.12 0 0 1 2.92 1.64z"/><linearGradient id="logo-h.svg-a" x1="628" x2="650.99" y1="48" y2="87.99" gradientUnits="userSpaceOnUse"><stop offset="0" stop-color="#4fbe9b"/><stop offset=".15" stop-color="#4fbe9b"/><stop offset=".85" stop-color="#108db3"/><stop offset="1" stop-color="#108db3"/></linearGradient>
<path id="more.svg-b" d="M703 3845a6 6 0 0 1 8.8-5.3l1.46-1.46A8 8 0 0 0 701 3845h-3l4 4 4-4h-3zm13-4l-4 4h3a6 6 0 0 1-8.8 5.3l-1.46 1.46A8 8 0 0 0 717 3845h3l-4-4z"/><linearGradient id="more.svg-a" x1="702.06" x2="713.42" y1="3838.72" y2="3848.32" gradientUnits="userSpaceOnUse"><stop offset="0" stop-color="#fa6e71"/><stop offset="1" stop-color="#c84080"/></linearGradient>
<path id="ref.svg-b" d="M1046 508a1 1 0 0 1 1-1h18a1 1 0 1 1 0 2h-18a1 1 0 0 1-1-1zm0 4a1 1 0 0 1 1-1h14a1 1 0 0 1 0 2h-14a1 1 0 0 1-1-1zm20 4a1 1 0 0 1-1 1h-18a1 1 0 0 1 0-2h18a1 1 0 0 1 1 1zm-4 4a1 1 0 0 1-1 1h-14a1 1 0 0 1 0-2h14a1 1 0 0 1 1 1zm-7 4a1 1 0 0 1-1 1h-7a1 1 0 0 1 0-2h7a1 1 0 0 1 1 1z"/><linearGradient id="ref.svg-a" x1="1046" x2="1066" y1="516" y2="516" gradientUnits="userSpaceOnUse"><stop offset="0" stop-color="#4fbe9b"/><stop offset=".15" stop-color="#4fbe9b"/><stop offset=".85" stop-color="#108db3"/><stop offset="1" stop-color="#108db3"/></linearGradient>
</defs>
<symbol id="icon-svg-close-search" viewBox="0 0 10 10"><use xlink:href="#close-search.svg-a" transform="translate(-1448 -1113)"/></symbol>
<symbol id="icon-svg-close" viewBox="0 0 10 10"><use fill="#fff" xlink:href="#close.svg-a" transform="translate(-934 -161)"/></symbol>
<symbol id="icon-svg-head" viewBox="0 0 24 23"><use fill="#fff" xlink:href="#head.svg-a" transform="translate(-1393 -174)"/></symbol>
<symbol id="icon-svg-i-yes-white" viewBox="0 0 20 14"><use fill="#fff" xlink:href="#i-yes-white.svg-a" transform="translate(-1093 -633)"/></symbol>
<symbol id="icon-svg-i-yes" viewBox="0 0 20 14"><use fill="url(#i-yes.svg-a)" xlink:href="#i-yes.svg-b" transform="translate(-1093 -633)"/></symbol>
<symbol id="icon-svg-logo-h" viewBox="0 0 35 40"><use fill="url(#logo-h.svg-a)" xlink:href="#logo-h.svg-b" transform="translate(-142 -48)"/></symbol>
<symbol id="icon-svg-search-input" viewBox="0 0 22 22"><use fill="url(#search-input.svg-a)" xlink:href="#search-input.svg-b" transform="translate(-1032 -1107)"/></symbol>
<symbol id="icon-svg-search" viewBox="0 0 22 22"><use fill="#fff" xlink:href="#search.svg-a" transform="translate(-1436 -57)"/></symbol>
<symbol id="icon-svg-speech_bubble" viewBox="0 0 22 22"><use xlink:href="#speech_bubble.svg-a" transform="translate(-1577 -57)"/></symbol>
<symbol id="icon-svg-logo-h" viewBox="0 0 35 40"><use fill="url(#logo-h.svg-a)" xlink:href="#logo-h.svg-b" transform="translate(-622 -48)"/></symbol>
<symbol id="icon-svg-more" viewBox="0 0 22 16"><use fill="url(#more.svg-a)" xlink:href="#more.svg-b" transform="translate(-698 -3837)"/></symbol>
<symbol id="icon-svg-ref" viewBox="0 0 20 18"><use fill="url(#ref.svg-a)" xlink:href="#ref.svg-b" transform="translate(-1046 -507)"/></symbol>
</svg>