<svg class="svg-symbols" style="position: absolute; clip: rect(0, 0, 0, 0);" xmlns="http://www.w3.org/2000/svg" xmlns:xlink="http://www.w3.org/1999/xlink">
<defs>
<path id="close-search.svg-a" d="M1457.83 1121.99a.6.6 0 0 1-.42 1.01.59.59 0 0 1-.42-.17l-4-4-3.99 4a.59.59 0 0 1-.83 0 .6.6 0 0 1 0-.84l3.99-4-4-3.98a.6.6 0 0 1 0-.84.58.58 0 0 1 .84 0l4 3.99 4-4c.23-.23.6-.23.83 0a.6.6 0 0 1 0 .85l-4 3.99z"/>
<path id="logo-h.svg-b" d="M175.53 55.12c.8.45 1.46 1.58 1.46 2.52v17.04c0 .94-.65 2.07-1.46 2.52l-2.08 1.17c-.8.45-1.46.05-1.46-.88V60.52c0-.93-.65-2.06-1.46-2.51l-2.07-1.17a468.18 468.18 0 0 1-2.92-1.64l-7.08-3.97c-.8-.45-.8-1.27 0-1.72l2.08-1.17c.8-.45 2.11-.45 2.92 0l2.08 1.17a491.92 491.92 0 0 1 2.92 1.64zM142 60.35c0-.94.66-1.33 1.46-.88l12.08 6.77c.8.45 1.46 1.58 1.46 2.52v16.98c0 .93-.66 1.33-1.46.88l-7.08-3.97c-.8-.45-1.46-.05-1.46.88v3.4c0 .93-.66 1.32-1.46.87l-2.08-1.16a3.19 3.19 0 0 1-1.46-2.52zm10 12.4c0-.93-.66-2.07-1.46-2.52l-2.08-1.16c-.8-.45-1.46-.06-1.46.88v3.39c0 .93.66 2.06 1.46 2.51l2.08 1.17c.8.45 1.46.05 1.46-.88zm6.5-16.06l7.08 3.97c.8.45 1.46 1.58 1.46 2.52v17.01c0 .94-.66 2.07-1.46 2.52l-2.08 1.17c-.8.45-1.46.05-1.46-.88V66.07c0-.94-.66-2.07-1.46-2.52l-2.08-1.17a531.96 531.96 0 0 1-2.92-1.64l-7.08-3.97c-.8-.45-.8-1.27 0-1.72l2.08-1.16c.8-.46 2.12-.46 2.92 0l2.08 1.16a569.91 569.91 0 0 1 2.92 1.64z"/><linearGradient id="logo-h.svg-a" x1="148" x2="170.99" y1="48" y2="87.99" gradientUnits="userSpaceOnUse"><stop offset="0" stop-color="#4fbe9b"/><stop offset=".15" stop-color="#4fbe9b"/><stop offset=".85" stop-color="#108db3"/><stop offset="1" stop-color="#108db3"/></linearGradient>
<path id="search-input.svg-b" d="M1053.7 1128.7a1 1 0 0 1-1.4 0l-5.68-5.67a9 9 0 1 1 1.41-1.41l5.68 5.67a1 1 0 0 1 0 1.42zm-5.7-12.7a7 7 0 1 0-14 0 7 7 0 0 0 14 0z"/><linearGradient id="search-input.svg-a" x1="1032" x2="1054" y1="1118" y2="1118" gradientUnits="userSpaceOnUse"><stop offset="0" stop-color="#4fbe9b"/><stop offset=".15" stop-color="#4fbe9b"/><stop offset=".85" stop-color="#108db3"/><stop offset="1" stop-color="#108db3"/></linearGradient>
<path id="search.svg-a" d="M1457.7 78.7a1 1 0 0 1-1.4 0l-5.68-5.67a9 9 0 1 1 1.41-1.41l5.68 5.67a1 1 0 0 1 0 1.42zM1452 66a7 7 0 1 0-14 0 7 7 0 0 0 14 0z"/>
<path id="speech_bubble.svg-a" d="M1597 60v11a1 1 0 0 1-1 1h-8.64l-4.36 3.11V72h-3a1 1 0 0 1-1-1V60a1 1 0 0 1 1-1h16a1 1 0 0 1 1 1zm-17-3a3 3 0 0 0-3 3v11a3 3 0 0 0 3 3h1v5l7-5h8a3 3 0 0 0 3-3V60a3 3 0 0 0-3-3z"/>
</defs>
<symbol id="icon-svg-close-search" viewBox="0 0 10 10"><use xlink:href="#close-search.svg-a" transform="translate(-1448 -1113)"/></symbol>
<symbol id="icon-svg-logo-h" viewBox="0 0 35 40"><use fill="url(#logo-h.svg-a)" xlink:href="#logo-h.svg-b" transform="translate(-142 -48)"/></symbol>
<symbol id="icon-svg-search-input" viewBox="0 0 22 22"><use fill="url(#search-input.svg-a)" xlink:href="#search-input.svg-b" transform="translate(-1032 -1107)"/></symbol>
<symbol id="icon-svg-search" viewBox="0 0 22 22"><use fill="#fff" xlink:href="#search.svg-a" transform="translate(-1436 -57)"/></symbol>
<symbol id="icon-svg-speech_bubble" viewBox="0 0 22 22"><use xlink:href="#speech_bubble.svg-a" transform="translate(-1577 -57)"/></symbol>
</svg>