<svg xmlns="http://www.w3.org/2000/svg" xmlns:xlink="http://www.w3.org/1999/xlink" width="35" height="40" viewBox="0 0 35 40"><defs><path id="c0bqa" d="M175.53 55.12c.8.45 1.46 1.58 1.46 2.52v17.04c0 .94-.65 2.07-1.46 2.52l-2.08 1.17c-.8.45-1.46.05-1.46-.88V60.52c0-.93-.65-2.06-1.46-2.51l-2.07-1.17a468.18 468.18 0 0 1-2.92-1.64l-7.08-3.97c-.8-.45-.8-1.27 0-1.72l2.08-1.17c.8-.45 2.11-.45 2.92 0l2.08 1.17a491.92 491.92 0 0 1 2.92 1.64zM142 60.35c0-.94.66-1.33 1.46-.88l12.08 6.77c.8.45 1.46 1.58 1.46 2.52v16.98c0 .93-.66 1.33-1.46.88l-7.08-3.97c-.8-.45-1.46-.05-1.46.88v3.4c0 .93-.66 1.32-1.46.87l-2.08-1.16a3.19 3.19 0 0 1-1.46-2.52zm10 12.4c0-.93-.66-2.07-1.46-2.52l-2.08-1.16c-.8-.45-1.46-.06-1.46.88v3.39c0 .93.66 2.06 1.46 2.51l2.08 1.17c.8.45 1.46.05 1.46-.88zm6.5-16.06l7.08 3.97c.8.45 1.46 1.58 1.46 2.52v17.01c0 .94-.66 2.07-1.46 2.52l-2.08 1.17c-.8.45-1.46.05-1.46-.88V66.07c0-.94-.66-2.07-1.46-2.52l-2.08-1.17a531.96 531.96 0 0 1-2.92-1.64l-7.08-3.97c-.8-.45-.8-1.27 0-1.72l2.08-1.16c.8-.46 2.12-.46 2.92 0l2.08 1.16a569.91 569.91 0 0 1 2.92 1.64z"/><linearGradient id="c0bqb" x1="148" x2="170.99" y1="48" y2="87.99" gradientUnits="userSpaceOnUse"><stop offset="0" stop-color="#4fbe9b"/><stop offset=".15" stop-color="#4fbe9b"/><stop offset=".85" stop-color="#108db3"/><stop offset="1" stop-color="#108db3"/></linearGradient></defs><g><g transform="translate(-142 -48)"><use fill="url(#c0bqb)" xlink:href="#c0bqa"/></g></g></svg>