<svg xmlns="http://www.w3.org/2000/svg" xmlns:xlink="http://www.w3.org/1999/xlink" width="24" height="23" viewBox="0 0 24 23"><defs><path id="7qx5a" d="M1417 192.03V194a3 3 0 0 1-3 3h-18a3 3 0 0 1-3-3v-1.98c0-2.15 3.26-4 7.83-4.7A5.98 5.98 0 0 1 1399 183v-3a6 6 0 0 1 12 0v3c0 1.7-.7 3.22-1.83 4.31 4.57.72 7.83 2.57 7.83 4.72zm-12-5.03a4 4 0 0 0 4-4v-3a4 4 0 0 0-8 0v3a4 4 0 0 0 4 4zm10 5.03c0-.23-.58-.99-2.29-1.7-2-.85-4.81-1.33-7.71-1.33-2.9 0-5.71.48-7.71 1.32-1.71.72-2.29 1.47-2.29 1.7V194a1 1 0 0 0 1 1h18a1 1 0 0 0 1-1z"/></defs><g><g transform="translate(-1393 -174)"><use fill="#fff" xlink:href="#7qx5a"/></g></g></svg>